<svg id="Capa_1" data-name="Capa 1" xmlns="http://www.w3.org/2000/svg" viewBox="0 0 30.88 35.26">
  <defs>
    <style>
      .cls-1 {
        fill: #ececec;
      }
    </style>
  </defs>
  <title>home</title>
  <path class="cls-1" d="M44.54,25.66a1.75,1.75,0,0,1,.57,1.3V46.24A1.75,1.75,0,0,1,43.36,48h-10a1.75,1.75,0,0,1,0-3.51h8.2V27.73L29.68,16.87,17.75,27.73V44.49h6.45V35.55a1.75,1.75,0,0,1,1.75-1.75h7.46a1.75,1.75,0,1,1,0,3.51H27.7v8.94A1.75,1.75,0,0,1,25.95,48H16a1.75,1.75,0,0,1-1.75-1.75V27a1.75,1.75,0,0,1,.57-1.3L28.5,13.2a1.76,1.76,0,0,1,2.36,0Z" transform="translate(-14.24 -12.74)"/>
</svg>
