<svg id="logo" xmlns="http://www.w3.org/2000/svg" viewBox="0 0 951.09 427.86">
  <defs>
    <style>
      .cls-1 {
        font-size: 300px;
        font-family: Exo2-Regular, Exo 2;
        letter-spacing: -0.02em;
      }

      .cls-1, .cls-2, .cls-6 {
        fill: #494949;
      }

      .cls-3 {
        fill: #4789bf;
      }

      .cls-3, .cls-4 {
        fill-rule: evenodd;
      }

      .cls-4 {
        fill: #2d5287;
      }

      .cls-10, .cls-11, .cls-12, .cls-5, .cls-7, .cls-8, .cls-9 {
        fill: none;
        stroke: #fff;
      }

      .cls-10, .cls-11, .cls-12, .cls-5, .cls-6, .cls-7, .cls-8, .cls-9 {
        stroke-miterlimit: 10;
      }

      .cls-5 {
        stroke-width: 4px;
      }

      .cls-6 {
        stroke: #494949;
      }

      .cls-6, .cls-8 {
        stroke-width: 2px;
      }

      .cls-7 {
        stroke-width: 3px;
      }

      .cls-10 {
        stroke-width: 0.5px;
      }

      .cls-11 {
        stroke-width: 5px;
      }

      .cls-12 {
        stroke-width: 0.25px;
      }
    </style>
  </defs>
  <path class="cls-2" d="M945.41,632.79a112.25,112.25,0,0,0-79.88,33.11c-4.81,4.81-1.67,8.62,3.14,13.43s9.47,8.8,14.28,4a88.43,88.43,0,0,1,124.92,0c2.4,2.4,3.46,2.44,5.3,1.18,2.59-1.79,8.89-6.08,11.83-8.25,6.33-5.08,5.1-5.53.29-10.34a112.25,112.25,0,0,0-79.88-33.11Z" transform="translate(-191.11 -589.03)"/>
  <path class="cls-2" d="M945.41,677.25a68.23,68.23,0,0,0-48.09,19.65c-4.7,4.61-.47,7.2,3.89,12.13,5,5.66,8,10.67,13,5.67,17.22-17.22,44.25-18.22,61.48-1,2.39,2.39,3.13.75,4.66-.41,2.85-2.17,5.88-4.22,8.57-6.5,5.32-4.49,9.61-5,4.64-9.86A68.23,68.23,0,0,0,945.41,677.25Z" transform="translate(-191.11 -589.03)"/>
  <g>
    <path class="cls-3" d="M270.75,646.16H387.34c43,0,78.15,31.17,78.15,74.16v.74c0,43-35.17,82.16-78.15,82.16H270.75V791.49H387.34a66.66,66.66,0,0,0,66.43-66.43v-.74a66.66,66.66,0,0,0-66.43-66.43H280.75l-10-11.72Zm0,110.16H387.34a31.48,31.48,0,0,0,31.26-31.26v-.74a31.48,31.48,0,0,0-31.26-31.26H307.75l10,11.72h69.59a19.75,19.75,0,0,1,19.54,19.54v.74a19.75,19.75,0,0,1-19.54,19.54H270.75v11.72Zm0,25.45H387.34c30,0,56.71-26.67,56.71-56.71v-.74c0-30-26.67-56.71-56.71-56.71H287.75l15,15.72h84.59c23.57,0,41,17.41,41,41v.74c0,23.57-17.41,41-41,41H270.75Z" transform="translate(-191.11 -589.03)"/>
    <path class="cls-3" d="M270.75,744.6H410c53.11,0,96.55,39.45,96.55,92.55v.92c0,53.1-43.45,100.55-96.55,100.55H205.75l7-11.72H410c46.63,0,84.83-42.2,84.83-88.83v-.92c0-46.63-38.2-80.83-84.83-80.83H270.75V744.6ZM410,891.74c27.22,0,49.66-26.44,49.66-53.66v-.92c0-27.22-22.44-45.66-49.66-45.66H270.75v11.72H410a38.2,38.2,0,0,1,37.94,37.94v.92A38.2,38.2,0,0,1,410,880H240.75l-7,11.72m-15,25.45H410c40.16,0,75.11-38.95,75.11-79.11v-.92c0-40.16-34.95-71.11-75.11-71.11H270.75v15.72H410c33.69,0,59.38,21.69,59.38,55.38v.92c0,33.69-25.69,63.38-59.38,63.38H227.75Z" transform="translate(-191.11 -589.03)"/>
    <path class="cls-4" d="M270.75,744.61H410l1.63,0a31.29,31.29,0,0,1-24.27,11.7H270.75V744.61Zm154.18,1.17a95.36,95.36,0,0,1,11.83,2.64,55.15,55.15,0,0,1-6.47,10.4,83.89,83.89,0,0,0-13.85-2.24,43.64,43.64,0,0,0,8.5-10.8Zm22.91,6.62c3.61,1.55,7.1-.68,10.47,1.28-1.65,3.56-3.56,11-5.71,14.24a85,85,0,0,0-10.6-5.25,66.65,66.65,0,0,0,5.84-10.27Zm-1.48,23.89a114.75,114.75,0,0,1-10.6,10.52c-4.28-2.06-10.64-3.15-15.38-4.17A112.27,112.27,0,0,0,435,771.16a72.55,72.55,0,0,1,11.32,5.11Zm-21.8,17.44a77.48,77.48,0,0,1-37.23,9.5H270.75V791.5H410a48.88,48.88,0,0,1,14.58,2.22ZM270.75,781.77H387.34c12.25,0,26.31-7.63,35.47-14.52A115.94,115.94,0,0,0,410,766.05H270.75Z" transform="translate(-191.11 -589.03)"/>
  </g>
  <line class="cls-5" x1="91.38" y1="155.56" x2="91.26" y2="214.17"/>
  <line class="cls-6" x1="190.07" y1="56.35" x2="223.45" y2="0.51"/>
  <line class="cls-6" x1="131.36" y1="154.55" x2="153.56" y2="117.41"/>
  <line class="cls-6" x1="0.86" y1="372.82" x2="95.08" y2="215.22"/>
  <line class="cls-7" x1="98.64" y1="155.58" x2="98.52" y2="214.19"/>
  <line class="cls-8" x1="106.3" y1="155.59" x2="106.18" y2="214.2"/>
  <line class="cls-9" x1="114.13" y1="155.6" x2="114.01" y2="214.21"/>
  <line class="cls-10" x1="122.22" y1="155.56" x2="122.09" y2="214.17"/>
  <line class="cls-11" x1="83.38" y1="155.56" x2="83.26" y2="214.17"/>
  <line class="cls-12" x1="130.83" y1="155.58" x2="130.71" y2="214.19"/>
</svg>
