<svg id="Capa_1" data-name="Capa 1" xmlns="http://www.w3.org/2000/svg" viewBox="0 0 28.99 36.66">
  <defs>
    <style>
      .cls-1 {
        fill: #ececec;
      }
    </style>
  </defs>
  <title>person</title>
  <path class="cls-1" d="M42.18,34.33a12.76,12.76,0,0,0-6-9,8.6,8.6,0,1,0-13.32,0,12.76,12.76,0,0,0-6,9L15,45.93a1.75,1.75,0,0,0,1.73,2H42.24a1.75,1.75,0,0,0,1.73-2ZM18.81,44.44l1.48-9.58a9.29,9.29,0,0,1,6.28-7.42,1.75,1.75,0,0,0,.34-3.17,5.09,5.09,0,1,1,5.19,0,1.75,1.75,0,0,0,.34,3.17,9.29,9.29,0,0,1,6.28,7.42l1.48,9.58Z" transform="translate(-15.01 -11.29)"/>
</svg>
