<svg id="Capa_1" data-name="Capa 1" xmlns="http://www.w3.org/2000/svg" viewBox="0 0 47.72 32.24">
  <defs>
    <style>
      .cls-1 {
        fill: #ececec;
      }

      .cls-2 {
        fill: none;
        stroke: #ececec;
        stroke-miterlimit: 10;
      }
    </style>
  </defs>
  <title>scan</title>
  <path class="cls-1" d="M22.36,46.09H37.06a3.16,3.16,0,0,0,3.16-3.16V17a3.16,3.16,0,0,0-3.16-3.16H22.36A3.16,3.16,0,0,0,19.2,17V42.93A3.16,3.16,0,0,0,22.36,46.09Zm.35-28.74h14V42.58h-14ZM30.95,36.8a1.75,1.75,0,1,1-2.48,0A1.81,1.81,0,0,1,30.95,36.8Z" transform="translate(-5.82 -13.85)"/>
  <path class="cls-2" d="M14.68,18.24c-11.2,2.25-11,21.06-.27,23.24" transform="translate(-5.82 -13.85)"/>
  <path class="cls-2" d="M44.68,18.34c11.2,2.25,11,21.06.27,23.24" transform="translate(-5.82 -13.85)"/>
  <path class="cls-2" d="M16.59,21.87C9,23.4,9.1,36.18,16.4,37.67" transform="translate(-5.82 -13.85)"/>
  <path class="cls-2" d="M42.83,22.06c7.62,1.53,7.48,14.31.19,15.8" transform="translate(-5.82 -13.85)"/>
</svg>
